<svg width="30" height="30" viewBox="0 0 30 30" fill="none" xmlns="http://www.w3.org/2000/svg">
<path d="M2.33325 16.9009C2.33325 12.1243 2.33325 9.73538 3.81779 8.25211C5.30232 6.76884 7.68999 6.76758 12.4666 6.76758H17.5333C22.3099 6.76758 24.6988 6.76758 26.1821 8.25211C27.6653 9.73664 27.6666 12.1243 27.6666 16.9009C27.6666 21.6775 27.6666 24.0664 26.1821 25.5497C24.6975 27.033 22.3099 27.0342 17.5333 27.0342H12.4666C7.68999 27.0342 5.30105 27.0342 3.81779 25.5497C2.33452 24.0652 2.33325 21.6775 2.33325 16.9009Z" stroke="#0638BD" stroke-width="2.2"/>
<path d="M4.8653 8.03346L4.8501 6.7668C4.99196 5.58753 5.28963 4.77306 5.9103 4.15366C7.10096 2.9668 9.0187 2.9668 12.8542 2.9668H16.9214C20.7569 2.9668 22.6734 2.9668 23.8653 4.15366C24.486 4.77306 24.7836 5.58753 24.9255 6.7668V8.03346" stroke="#0638BD" stroke-width="2.2"/>
<path d="M21.9649 14.3674C23.0143 14.3674 23.8649 13.5167 23.8649 12.4674C23.8649 11.418 23.0143 10.5674 21.9649 10.5674C20.9156 10.5674 20.0649 11.418 20.0649 12.4674C20.0649 13.5167 20.9156 14.3674 21.9649 14.3674Z" stroke="#0638BD" stroke-width="2.2"/>
<path d="M2.33325 17.5339L4.55245 15.5921C5.10869 15.1058 5.82893 14.849 6.56736 14.8737C7.3058 14.8984 8.00727 15.2027 8.52978 15.7251L13.9638 21.1591C14.3855 21.5807 14.9423 21.8401 15.5364 21.8915C16.1305 21.9429 16.7236 21.7832 17.2115 21.4403L17.5902 21.1743C18.294 20.68 19.1446 20.4391 20.003 20.4909C20.8614 20.5426 21.6769 20.8841 22.3162 21.4593L26.3999 25.1339" stroke="#0638BD" stroke-width="2.2" stroke-linecap="round"/>
</svg>
